<?xml version="1.0" standalone="no"?>
<!DOCTYPE svg PUBLIC "-//W3C//DTD SVG 20010904//EN"
 "http://www.w3.org/TR/2001/REC-SVG-20010904/DTD/svg10.dtd">
<svg version="1.0" xmlns="http://www.w3.org/2000/svg"
 width="131.000000pt" height="25.000000pt" viewBox="0 0 131.000000 25.000000"
 preserveAspectRatio="xMidYMid meet">
<metadata>
Created by potrace 1.16, written by Peter Selinger 2001-2019
</metadata>
<g transform="translate(0.000000,25.000000) scale(0.100000,-0.100000)"
fill="#000000" stroke="none">
<path d="M60 207 c-19 -9 -26 -22 -28 -50 -3 -33 0 -39 32 -58 45 -27 45 -33
0 -25 -34 7 -35 6 -32 -21 3 -25 8 -28 41 -31 79 -7 105 70 40 114 -35 24 -33
37 3 28 20 -5 24 -2 24 19 0 36 -35 47 -80 24z"/>
<path d="M190 115 c0 -95 0 -95 25 -95 21 0 25 5 25 30 0 23 4 30 20 30 29 0
60 36 60 69 0 43 -23 61 -81 61 l-49 0 0 -95z"/>
<path d="M395 198 c-18 -49 -55 -163 -55 -170 0 -4 12 -8 26 -8 17 0 28 6 31
20 7 27 49 27 56 0 3 -14 14 -20 31 -20 14 0 26 3 26 7 0 3 -12 46 -27 95 -25
84 -27 88 -55 88 -16 0 -31 -6 -33 -12z"/>
<path d="M540 115 l0 -95 30 0 c27 0 30 3 31 33 l0 32 16 -32 c13 -26 23 -33
45 -33 33 0 35 8 8 54 -14 22 -17 37 -10 41 14 9 13 68 -2 83 -7 7 -36 12 -65
12 l-53 0 0 -95z"/>
<path d="M894 128 c-15 -46 -29 -89 -32 -95 -3 -9 6 -13 26 -13 21 0 31 6 35
20 7 26 44 26 52 0 8 -24 55 -28 55 -6 0 8 -11 51 -25 95 -24 77 -27 81 -55
81 -27 0 -30 -5 -56 -82z"/>
<path d="M1070 115 c0 -95 0 -95 25 -95 23 0 25 4 25 48 l0 47 27 -47 c20 -36
32 -48 50 -48 22 0 23 2 23 95 0 94 0 95 -24 95 -21 0 -25 -5 -28 -37 l-3 -38
-20 38 c-15 29 -24 37 -47 37 l-28 0 0 -95z"/>
</g>
</svg>
